<svg id="Layer_3" data-name="Layer 3" xmlns="http://www.w3.org/2000/svg" viewBox="0 0 233 48"><defs><style>.cls-1{fill:#ff556e;}.cls-2{fill:#39364e;}</style></defs><title>logo</title><path class="cls-1" d="M12.229,0h0.014a2.886,2.886,0,0,1,2.906,2.866V6.657a2.886,2.886,0,0,1-2.906,2.866H12.229A2.886,2.886,0,0,1,9.323,6.657V2.866A2.886,2.886,0,0,1,12.229,0Z"/><path class="cls-1" d="M46.958,5.913h-5.3V9.539A1.158,1.158,0,0,1,40.5,10.685H34.476a1.158,1.158,0,0,1-1.165-1.145V5.913h-16.9V9.539a1.158,1.158,0,0,1-1.165,1.145H9.225A1.158,1.158,0,0,1,8.059,9.539V5.913H3.448A3.428,3.428,0,0,0,0,9.3V44.613A3.428,3.428,0,0,0,3.448,48H46.958a3.428,3.428,0,0,0,3.448-3.387V9.3A3.428,3.428,0,0,0,46.958,5.913ZM46.29,41.929a2.363,2.363,0,0,1-2.377,2.335H6.5a2.363,2.363,0,0,1-2.377-2.335v-28h42.17v28h0Z"/><path class="cls-1" d="M37.482,0H37.5A2.886,2.886,0,0,1,40.4,2.866V6.657A2.886,2.886,0,0,1,37.5,9.523H37.482a2.886,2.886,0,0,1-2.906-2.866V2.866A2.886,2.886,0,0,1,37.482,0Z"/><path class="cls-1" d="M17.674,19.611H10.687A1.041,1.041,0,0,0,9.639,20.64v5.913a1.041,1.041,0,0,0,1.047,1.029h6.987a1.041,1.041,0,0,0,1.047-1.029V20.64A1.041,1.041,0,0,0,17.674,19.611Zm-0.286,6.7H10.974V20.892h6.414v5.414Z"/><path class="cls-1" d="M28.7,19.611H21.71a1.041,1.041,0,0,0-1.047,1.029v5.913a1.041,1.041,0,0,0,1.047,1.029H28.7a1.041,1.041,0,0,0,1.047-1.029V20.64A1.041,1.041,0,0,0,28.7,19.611ZM28.408,26.3H22V20.892h6.411V26.3Z"/><path class="cls-1" d="M39.72,19.611H32.733a1.041,1.041,0,0,0-1.047,1.029v5.913a1.041,1.041,0,0,0,1.047,1.029H39.72a1.041,1.041,0,0,0,1.051-1.025V20.644a1.041,1.041,0,0,0-1.049-1.033h0ZM39.431,26.3h-6.41V20.892h6.411V26.3Z"/><path class="cls-1" d="M17.674,30.322H10.687a1.041,1.041,0,0,0-1.047,1.029v5.913a1.041,1.041,0,0,0,1.047,1.029h6.987a1.041,1.041,0,0,0,1.047-1.029V31.351A1.041,1.041,0,0,0,17.674,30.322Zm-0.286,6.692H10.974V31.6h6.414v5.413Z"/><path class="cls-1" d="M28.7,30.322H21.71a1.041,1.041,0,0,0-1.047,1.029v5.913a1.041,1.041,0,0,0,1.047,1.029H28.7a1.041,1.041,0,0,0,1.047-1.029V31.351A1.041,1.041,0,0,0,28.7,30.322Zm-0.289,6.692H22V31.6h6.411v5.413h0Z"/><path class="cls-1" d="M39.72,30.322H32.733a1.041,1.041,0,0,0-1.047,1.029v5.913a1.041,1.041,0,0,0,1.047,1.029H39.72a1.041,1.041,0,0,0,1.051-1.027V31.353a1.041,1.041,0,0,0-1.051-1.031h0Zm-0.289,6.692h-6.41V31.6h6.411v5.413h0Z"/><path class="cls-2" d="M113.586,5.844h6.98l-3.23,40.108H111.8L92.3,18.189,89.991,45.952H83.068L86.3,5.844h5.538l19.556,27.819Z"/><path class="cls-2" d="M148.025,19.981q2.711,2.533,2.711,7.652,0,1.139-.058,1.764l-1.326,16.555h-6.865l0.346-3.982a8.288,8.288,0,0,1-3.289,3.3,9.566,9.566,0,0,1-4.673,1.138,11.649,11.649,0,0,1-5.048-1.053,8.357,8.357,0,0,1-3.461-2.9,7.332,7.332,0,0,1-1.24-4.181,7.528,7.528,0,0,1,1.644-5.092,9.84,9.84,0,0,1,5.279-2.788,42.679,42.679,0,0,1,9.691-.882h2.078l0.058-1.081a5.351,5.351,0,0,0-1.038-4.209q-1.271-1.366-4.269-1.366a15.382,15.382,0,0,0-4.586.768,22.525,22.525,0,0,0-4.759,2.134L127.6,20.863a18.971,18.971,0,0,1,5.6-2.475,24.287,24.287,0,0,1,6.577-.939Q145.314,17.45,148.025,19.981ZM141.3,39.41a7.48,7.48,0,0,0,2.106-4.893l0.115-1.252H141.91a31.452,31.452,0,0,0-5.913.427,5.592,5.592,0,0,0-2.972,1.337,3.487,3.487,0,0,0-.866,2.5,3.362,3.362,0,0,0,1.24,2.731,5.05,5.05,0,0,0,3.317,1.024A6.237,6.237,0,0,0,141.3,39.41Z"/><path class="cls-2" d="M198.82,19.953q2.279,2.5,2.279,7.4,0,1.081-.058,1.707l-1.326,16.9H192.5l1.327-16.669a8.549,8.549,0,0,0,.058-1.138q0-5.063-4.442-5.063a5.7,5.7,0,0,0-4.528,1.878,9.147,9.147,0,0,0-1.875,5.575l-1.27,15.417h-7.211l1.385-16.612a7.4,7.4,0,0,0-.837-4.722,4.011,4.011,0,0,0-3.547-1.536q-5.885,0-6.461,7.453L163.89,45.952h-7.212l2.193-27.763h7.038L165.62,21.6a10.208,10.208,0,0,1,8.653-4.153,9.793,9.793,0,0,1,5.134,1.252,7.391,7.391,0,0,1,3.057,3.641,10.715,10.715,0,0,1,4.1-3.641A12.126,12.126,0,0,1,192.1,17.45Q196.541,17.45,198.82,19.953Z"/><path class="cls-2" d="M229.711,20.778Q233,24.106,233,30.478a25.352,25.352,0,0,1-.174,2.845H213.559a8.205,8.205,0,0,0,2.134,5.689,7.718,7.718,0,0,0,5.654,1.934,13.98,13.98,0,0,0,8.6-2.9l1.673,4.836a13.229,13.229,0,0,1-4.73,2.56,19.1,19.1,0,0,1-6,.967,16.166,16.166,0,0,1-7.557-1.678,11.972,11.972,0,0,1-4.991-4.75,14.172,14.172,0,0,1-1.76-7.168,17.1,17.1,0,0,1,1.817-7.994,13.356,13.356,0,0,1,5.048-5.433,13.987,13.987,0,0,1,7.327-1.934Q226.422,17.45,229.711,20.778Zm-13.5,3.442a9.126,9.126,0,0,0-2.422,5.291h13.153a7.5,7.5,0,0,0-1.529-5.291,5.562,5.562,0,0,0-4.355-1.764A6.724,6.724,0,0,0,216.212,24.22Z"/></svg>